<svg xmlns="http://www.w3.org/2000/svg" xmlns:xlink="http://www.w3.org/1999/xlink" xmlns:inkscape="http://www.inkscape.org/namespaces/inkscape" version="1.1" width="51" height="51" viewBox="79.07 49.39 133.01 135.38">
<defs>
<path id="font_1_24" d="M.3710022 .17599488C.3710022 .19000244 .36683146 .20267232 .35849 .21400452 .3501587 .22533672 .33433024 .2390035 .31100465 .25500489L.20799256 .32699586C.16932678 .3536682 .14099121 .38150025 .12298584 .41049195 .10499064 .4394938 .09599304 .47066245 .09599304 .5039978 .09599304 .5580037 .115493778 .60217288 .15449524 .6365051 .1934967 .6708374 .2426656 .68800356 .30200196 .68800356 .3646647 .68800356 .41333009 .66867068 .44799806 .6300049 .48266603 .5913391 .5 .53700259 .5 .46699525H.375C.375 .5003306 .36849977 .52616378 .35549928 .5444946 .34249879 .5628357 .32366435 .5720062 .29899598 .5720062 .27833558 .5720062 .26150514 .566335 .24850464 .5549927 .23550415 .54366049 .2290039 .5286611 .2290039 .5099945 .2290039 .4959971 .23366802 .4829966 .24299622 .47099305 .2523346 .45899964 .27266947 .44167076 .30400086 .41900636L.397995 .3500061C.43599955 .32133994 .46350099 .2935028 .48049928 .26649476 .49749757 .23949687 .5059967 .21066284 .5059967 .17999268 .5059967 .12466431 .48632813 .07949829 .44699098 .04449463 .40766398 .00950114 .3580017-.0079956059 .29800416-.0079956059 .2333374-.0079956059 .18333435 .01133728 .147995 .05000305 .11266581 .08866882 .09466553 .14400228 .09399414 .21600342H.21899414C.21966553 .18066406 .22666423 .1539917 .23999024 .13598633 .25332643 .11799113 .2726644 .10899353 .29800416 .10899353 .31999717 .10899353 .33766175 .11499532 .35099793 .1269989 .3643341 .13900249 .3710022 .15533448 .3710022 .17599488Z"/>
<path id="font_1_43" d="M.30200196 .100997928C.32667033 .100997928 .3456675 .10683187 .35899354 .118499759 .3723297 .13016765 .3793335 .14666748 .38000489 .16799927H.5059967C.5059967 .113332118 .48782859 .07033285 .4514923 .039001466 .41516624 .0076700847 .36566673-.0079956059 .30299378-.0079956059 .23899842-.0079956059 .1881663 .008000691 .15049744 .039993287 .112828578 .071996059 .09399414 .115997318 .09399414 .17199707V.32699586C.09399414 .3810018 .11349487 .42466737 .15249634 .45799256 .1914978 .4913279 .24166362 .5079956 .30299378 .5079956 .36366273 .5079956 .4126638 .4918264 .44999696 .45948792 .4873301 .42715965 .5059967 .3836619 .5059967 .32899476V.21899414H.2230072V.17500305C.2230072 .15233867 .2303365 .13433838 .24499512 .1210022 .2596639 .107666019 .27866618 .100997928 .30200196 .100997928M.2230072 .29600526H.38000489V.32400514C.38000489 .34599815 .37250266 .36399333 .35749818 .37799073 .34250389 .3919983 .32333885 .39900209 .30000306 .39900209 .27867127 .39900209 .26050315 .39183555 .24549866 .37750245 .23050435 .36316935 .2230072 .3456675 .2230072 .32499696V.29600526Z"/>
<path id="font_1_53" d="M.54299929 .3480072V0H.42999269V.33999635C.42999269 .3606669 .42715965 .3753357 .42149354 .3840027 .41582743 .39266969 .4059957 .39700318 .3919983 .39700318 .3780009 .39700318 .36783348 .39266969 .36149598 .3840027 .35516868 .3753357 .352005 .3610026 .352005 .34100343V0H.2480011V.33999635C.2480011 .3606669 .24516805 .3753357 .23950196 .3840027 .23383586 .39266969 .22433472 .39700318 .21099854 .39700318 .19632976 .39700318 .18582662 .39250184 .17948914 .38349916 .17316182 .37449647 .16999817 .35966493 .16999817 .33900453V0H.057006837V.5H.16600037V.45399476C.17667134 .47266136 .18866985 .48632813 .20199585 .49499513 .21533203 .5036621 .23099773 .5079956 .24899292 .5079956 .26966349 .5079956 .28682963 .5024974 .30049134 .49150086 .3141632 .48050437 .32433067 .46366883 .33099366 .44099427 .34566245 .46500144 .36099754 .48216758 .3769989 .49249269 .39300028 .50282797 .41233317 .5079956 .43499757 .5079956 .4730021 .5079956 .50050356 .4959971 .51750186 .47200013 .5345001 .44800315 .54299929 .40667216 .54299929 .3480072Z"/>
<path id="font_1_3" d=""/>
<path id="font_1_41" d="M.30099488 .102996829C.32566325 .102996829 .344162 .10999552 .3564911 .12399292 .36883036 .13800049 .3756663 .15900167 .3769989 .18699646H.5059967C.5046641 .1256663 .48582969 .07783508 .4494934 .043502809 .41316734 .009170532 .36366783-.0079956059 .30099488-.0079956059 .24099732-.0079956059 .1914978 .008834839 .15249634 .042495729 .11349487 .076166789 .09399414 .120000209 .09399414 .17399597V.32499696C.09399414 .3796641 .11349487 .42382813 .15249634 .457489 .1914978 .49116007 .24133301 .5079956 .30200196 .5079956 .3653361 .5079956 .4148356 .4913279 .4505005 .45799256 .48616538 .42466737 .5046641 .3773346 .5059967 .31599427H.3769989C.3769989 .34000144 .36966453 .3590037 .35499574 .3730011 .34032694 .3869985 .32132975 .3939972 .29800416 .3939972 .27533976 .3939972 .25717164 .38716126 .24349976 .37348939 .22983806 .35982768 .2230072 .34099833 .2230072 .31700135V.17300415C.2230072 .15233357 .23050435 .13549805 .24549866 .12249756 .26050315 .10949707 .27900187 .102996829 .30099488 .102996829Z"/>
<path id="font_1_55" d="M.30000306 .5079956C.3620046 .5079956 .41183473 .49116007 .4494934 .457489 .48716227 .42382813 .5059967 .3786672 .5059967 .32200624V.17799378C.5059967 .1213328 .48699443 .076166789 .44898988 .042495729 .41099549 .008834839 .36133323-.0079956059 .30000306-.0079956059 .23866272-.0079956059 .18899028 .008834839 .15098572 .042495729 .11299133 .076166789 .09399414 .1213328 .09399414 .17799378V.32200624C.09399414 .3786672 .11299133 .42382813 .15098572 .457489 .18899028 .49116007 .23866272 .5079956 .30000306 .5079956M.30000306 .102996829C.32133485 .102996829 .3394979 .11016337 .3544922 .12449646 .36949668 .13882955 .3769989 .1573283 .3769989 .17999268V.32000733C.3769989 .34267173 .36949668 .36133323 .3544922 .37599183 .3394979 .3906606 .32133485 .397995 .30000306 .397995 .27867127 .397995 .26050315 .3906606 .24549866 .37599183 .23050435 .36133323 .2230072 .34267173 .2230072 .32000733V.17999268C.2230072 .1573283 .23050435 .13882955 .24549866 .12449646 .26050315 .11016337 .27867127 .102996829 .30000306 .102996829Z"/>
<path id="font_1_58" d="M.24699402 .2749939V0H.117996219V.5H.24299622V.43499757C.257665 .4603373 .27683006 .47883607 .30049134 .49049378 .3241628 .5021617 .35333253 .5079956 .3880005 .5079956 .41400147 .5079956 .4381663 .50399276 .460495 .49598695 .48283387 .48799134 .501002 .47733055 .5149994 .46400453L.45500184 .3580017C.44366966 .3686625 .428833 .37749229 .41049195 .38449098 .39216105 .39149986 .37366233 .39500428 .35499574 .39500428 .31766258 .39500428 .29032899 .3853353 .272995 .3659973 .255661 .34666953 .24699402 .31633506 .24699402 .2749939Z"/>
<path id="font_1_38" d="M.5059967 .5V0H.38200379V.044006349C.36799623 .028666178 .3498281 .016164145 .3274994 .006500244 .30517069-.0031636556 .28167216-.0079956059 .25700379-.0079956059 .20500183-.0079956059 .16483052 .007837932 .13648987 .039505006 .108159389 .07117208 .09399414 .1160024 .09399414 .17399597V.32499696C.09399414 .38232932 .10916138 .42715965 .13949585 .45948792 .16983032 .4918264 .21200054 .5079956 .26600648 .5079956 .29000346 .5079956 .3131663 .50316366 .335495 .49349977 .35783387 .48383586 .3733368 .47200013 .38200379 .45799256V.5H.5059967M.29899598 .102996829C.32166038 .102996829 .34032694 .11049398 .35499574 .12548828 .36966453 .14049275 .3769989 .16032918 .3769989 .18499756V.31900025C.3769989 .34233604 .36966453 .36133323 .35499574 .37599183 .34032694 .3906606 .32166038 .397995 .29899598 .397995 .27700297 .397995 .2586721 .39115907 .2440033 .37748719 .22933452 .36382548 .22200012 .34599815 .22200012 .32400514V.17500305C.22200012 .15367127 .22933452 .13633728 .2440033 .1230011 .2586721 .10966492 .27700297 .102996829 .29899598 .102996829Z"/>
<path id="font_1_54" d="M.5059967 .33099366V0H.3769989V.32299806C.3769989 .34633384 .37016297 .3646647 .3564911 .37799073 .34282939 .3913269 .32466636 .397995 .30200196 .397995 .27933757 .397995 .26050315 .39082847 .24549866 .37649537 .23050435 .36216227 .2230072 .34432984 .2230072 .32299806V0H.09399414V.5H.21899414V.44900514C.23099773 .4663391 .24799602 .48050437 .269989 .49150086 .2919922 .5024974 .31599427 .5079956 .34199525 .5079956 .39333598 .5079956 .4335022 .49232994 .4624939 .46099855 .49149577 .42966715 .5059967 .38633219 .5059967 .33099366Z"/>
<path id="font_1_60" d="M.4980011 .11000061V0H.3670044C.31700645 0 .280838 .011332194 .25849916 .033996583 .23617046 .05666097 .2250061 .09399414 .2250061 .1459961V.3899994H.11000061V.5H.2250061V.6230011H.35299684V.5H.49699403V.3899994H.35299684V.16799927C.35299684 .1459961 .35699464 .13082886 .36499024 .12249756 .372996 .11416626 .3869985 .11000061 .40699769 .11000061H.4980011Z"/>
<path id="font_1_59" d="M.30499269 .5079956C.36299644 .5079956 .40866599 .49416099 .44200135 .4664917 .4753367 .4388326 .4930013 .39933778 .49499513 .3480072H.375C.3743286 .36533103 .36665855 .37949119 .35198976 .39048768 .33733116 .40149436 .31933595 .40699769 .29800416 .40699769 .27866618 .40699769 .2623291 .40283204 .24899292 .39450074 .23566692 .38616944 .2290039 .3756714 .2290039 .3630066 .2290039 .3496704 .23516846 .33866883 .24749756 .33000184 .25983683 .32133485 .28766886 .31200157 .33099366 .30200196 .36566163 .29333497 .3913269 .28600059 .4079895 .27999879 .42466227 .27399699 .43900047 .2669983 .45100404 .2590027 .46967063 .24633789 .483668 .23117066 .49299623 .21350098 .5023346 .1958313 .5070038 .17499797 .5070038 .15100098 .5070038 .10366821 .48750306 .065333049 .4485016 .035995485 .40950013 .006668091 .35966493-.0079956059 .29899598-.0079956059 .2363332-.0079956059 .18700154 .006169637 .15100098 .034500123 .115000408 .062830608 .09599813 .10333252 .09399414 .15600586H.22200012C.2240041 .13600667 .2323354 .120503749 .24699402 .10949707 .2616628 .09850057 .2809957 .09300232 .30499269 .09300232 .32633464 .09300232 .34417216 .097335819 .35850526 .10600281 .37283836 .1146698 .38000489 .126002 .38000489 .13999939 .38000489 .15399678 .37350465 .16549683 .36050416 .17449951 .34750367 .1835022 .31900025 .19300334 .2749939 .20300293 .2403361 .21099854 .21483867 .21799724 .19850159 .22399903 .1821645 .23000081 .16799927 .23699951 .15600586 .24499512 .13733928 .2569987 .12333679 .27183024 .11399841 .28948976 .104670207 .30715943 .1000061 .32766215 .1000061 .35099793 .1000061 .39766947 .11883545 .4355011 .15649414 .4644928 .19416301 .49349467 .24366252 .5079956 .30499269 .5079956Z"/>
<clipPath id="clip_2">
<path transform="matrix(1,0,0,-1,0,283.465)" d="M0 283.465H283.465V0H0Z"/>
</clipPath>
</defs>
<g inkscape:groupmode="layer" inkscape:label="Camada 2">
<use data-text="S" xlink:href="#font_1_24" transform="matrix(29,0,0,-29,41.1772,211.9718)" fill="currentColor"/>
<use data-text="e" xlink:href="#font_1_43" transform="matrix(29,0,0,-29,58.5772,211.9718)" fill="currentColor"/>
<use data-text="m" xlink:href="#font_1_53" transform="matrix(29,0,0,-29,75.9772,211.9718)" fill="currentColor"/>
<use data-text=" " xlink:href="#font_1_3" transform="matrix(29,0,0,-29,93.377208,211.9718)" fill="currentColor"/>
<use data-text="c" xlink:href="#font_1_41" transform="matrix(29,0,0,-29,110.77721,211.9718)" fill="currentColor"/>
<use data-text="o" xlink:href="#font_1_55" transform="matrix(29,0,0,-29,128.17722,211.9718)" fill="currentColor"/>
<use data-text="r" xlink:href="#font_1_58" transform="matrix(29,0,0,-29,145.57721,211.9718)" fill="currentColor"/>
<use data-text="a" xlink:href="#font_1_38" transform="matrix(29,0,0,-29,162.9772,211.9718)" fill="currentColor"/>
<use data-text="n" xlink:href="#font_1_54" transform="matrix(29,0,0,-29,180.3772,211.9718)" fill="currentColor"/>
<use data-text="t" xlink:href="#font_1_60" transform="matrix(29,0,0,-29,197.77719,211.9718)" fill="currentColor"/>
<use data-text="e" xlink:href="#font_1_43" transform="matrix(29,0,0,-29,215.17719,211.9718)" fill="currentColor"/>
<use data-text="s" xlink:href="#font_1_59" transform="matrix(29,0,0,-29,232.57718,211.9718)" fill="currentColor"/>
<path transform="matrix(1,0,0,-1,41.1772,214.1466)" stroke-width="1.45" stroke-linecap="butt" stroke-miterlimit="10" stroke-linejoin="miter" fill="none" stroke="currentColor" d="M0 0V0H208.8Z"/>
<g clip-path="url(#clip_2)">
<path transform="matrix(1,0,0,-1,160.6488,102.9765)" stroke-width="4" stroke-linecap="butt" stroke-miterlimit="10" stroke-linejoin="miter" fill="none" stroke="currentColor" d="M0 0C0 6.607-9.497 18.5-13.413 23.123-14.282 24.149-15.861 24.149-16.73 23.123-20.647 18.5-30.143 6.607-30.143 0-30.143-8.324-23.396-15.072-15.072-15.072-6.748-15.072 0-8.324 0 0Z"/>
<path transform="matrix(1,0,0,-1,184.6488,135.44699)" stroke-width="4" stroke-linecap="butt" stroke-miterlimit="10" stroke-linejoin="miter" fill="none" stroke="currentColor" d="M0 0C0 6.607-9.497 18.5-13.413 23.123-14.282 24.149-15.861 24.149-16.73 23.123-20.647 18.5-30.143 6.607-30.143 0-30.143-8.324-23.396-15.072-15.072-15.072-6.748-15.072 0-8.324 0 0Z"/>
<path transform="matrix(1,0,0,-1,136.1989,135.44699)" stroke-width="4" stroke-linecap="butt" stroke-miterlimit="10" stroke-linejoin="miter" fill="none" stroke="currentColor" d="M0 0C0 6.607-9.497 18.5-13.413 23.123-14.282 24.149-15.861 24.149-16.73 23.123-20.647 18.5-30.143 6.607-30.143 0-30.143-8.324-23.396-15.072-15.072-15.072-6.748-15.072 0-8.324 0 0Z"/>
<path transform="matrix(1,0,0,-1,145.5509,56.6456)" stroke-width="2" stroke-linecap="butt" stroke-miterlimit="10" stroke-linejoin="miter" fill="none" stroke="currentColor" d="M0 0-2.141-.036-4.326-.161-6.458-.366-8.6-.642-10.741-1.007-12.873-1.453-14.97-1.944-17.085-2.541-19.139-3.227-23.177-4.805-25.152-5.706-27.101-6.668-29.006-7.721-30.858-8.852-32.685-10.021-34.468-11.278-36.216-12.614-37.867-13.979-39.536-15.432-41.127-16.939-42.63-18.472-44.133-20.13-45.514-21.779-46.869-23.482-48.171-25.265-49.403-27.074-50.557-28.938-51.658-30.881-52.689-32.825-53.642-34.795-55.346-38.842-56.727-43.041-57.33-45.145-57.802-47.294-58.238-49.469-58.588-51.653-58.868-53.837-59.069-56.021-59.182-58.241-59.226-60.461-59.182-62.645-59.06-64.865-58.868-67.049-58.588-69.233-58.23-71.417-57.793-73.593-57.321-75.741-56.727-77.881-56.054-79.994-54.507-84.112-53.642-86.083-52.68-88.115-51.649-90.05-50.548-91.939-49.394-93.803-48.162-95.63-46.86-97.405-45.514-99.098-44.09-100.801-42.622-102.414-41.118-103.948-39.519-105.49-36.207-108.272-34.459-109.6-32.676-110.866-30.85-112.034-28.953-113.157-27.048-114.218-25.108-115.181-21.14-116.919-17.024-118.328-14.962-118.943-12.864-119.424-10.732-119.861-8.582-120.227-6.441-120.521-4.309-120.717-2.132-120.842 .035-120.878H.044 .053L2.185-120.842 4.37-120.717 6.511-120.512 8.652-120.227 10.784-119.861 12.925-119.424 15.023-118.934 17.094-118.328 21.21-116.91 23.229-116.072 25.169-115.181 27.118-114.209 29.058-113.148 30.911-112.025 32.737-110.857 34.52-109.6 36.259-108.263 37.92-106.89 39.589-105.437 41.171-103.939 42.683-102.406 44.142-100.792 45.566-99.089 46.912-97.395 48.223-95.622 49.455-93.794 50.609-91.939 51.71-90.04 52.742-88.053 53.694-86.074 55.398-82.026 56.779-77.827 57.373-75.723 58.282-71.409 58.64-69.224 58.92-67.049 59.112-64.847 59.235-62.628 59.278-60.408 59.235-58.223 59.112-56.003 58.92-53.829 58.64-51.6 58.282-49.46 57.845-47.285 57.373-45.127 56.779-42.988 56.097-40.884 54.559-36.774 53.685-34.741 52.742-32.771 51.701-30.828 50.592-28.929 49.447-27.066 48.215-25.247 46.912-23.473 45.566-21.779 44.142-20.085 42.665-18.454 39.536-15.396 37.911-13.97 36.216-12.561 34.511-11.278 32.72-10.011 28.997-7.711 27.101-6.668 25.152-5.696 21.193-3.949 17.077-2.541 15.005-1.934 10.776-1.007 8.634-.642 6.493-.356 4.317-.161 2.176-.036 0 0ZM-2.097-120.128-4.256-120.004-6.371-119.799-8.486-119.522-10.601-119.166-12.716-118.72-14.787-118.247-16.823-117.65-20.887-116.26-24.811-114.539-26.725-113.576-28.604-112.533-30.483-111.419-32.292-110.26-34.048-109.021-35.77-107.701-39.056-104.955-40.629-103.44-42.115-101.924-43.565-100.32-44.972-98.635-46.301-96.968-47.603-95.211-48.809-93.419-49.945-91.565-51.046-89.702-52.06-87.785-53.004-85.779-53.86-83.827-55.39-79.744-56.054-77.676-56.639-75.572-57.539-71.283-57.898-69.135-58.169-66.978-58.361-64.82-58.483-62.618-58.518-60.461-58.483-58.268-58.369-56.066-58.177-53.917-57.898-51.76-57.548-49.603-57.12-47.436-56.648-45.333-56.062-43.255-54.69-39.101-53.004-35.107-52.069-33.146-51.046-31.229-49.954-29.312-48.818-27.476-47.603-25.684-46.309-23.928-44.981-22.243-43.609-20.611-42.123-18.971-40.638-17.446-39.073-15.975-37.422-14.531-35.778-13.176-34.057-11.857-32.3-10.617-30.5-9.468-28.656-8.344-26.777-7.301-24.863-6.347-22.906-5.465-18.912-3.905-16.876-3.227-14.804-2.63-12.733-2.149-10.609-1.712-8.494-1.346-6.38-1.07-4.265-.874-2.115-.758 0-.713 2.15-.749 4.265-.874 6.415-1.07 8.538-1.346 10.653-1.703 14.839-2.63 16.876-3.218 20.939-4.627 24.854-6.347 26.777-7.292 28.656-8.335 32.335-10.609 34.101-11.848 35.779-13.132 37.474-14.531 39.065-15.913 42.167-18.962 43.618-20.558 45.025-22.234 46.362-23.919 47.646-25.666 48.861-27.467 49.997-29.303 51.099-31.176 52.112-33.101 53.047-35.054 53.904-37.042 55.442-41.116 56.106-43.202 56.692-45.305 57.163-47.427 57.592-49.585 57.95-51.706 58.221-53.9 58.413-56.057 58.536-58.259 58.571-60.408 58.536-62.61 58.413-64.812 58.23-66.969 57.95-69.117 57.601-71.275 56.7-75.554 56.106-77.622 54.743-81.776 53.056-85.77 52.112-87.732 51.099-89.693 50.006-91.565 48.87-93.402 47.655-95.203 46.362-96.95 45.025-98.626 43.626-100.311 42.176-101.907 40.69-103.431 39.126-104.911 37.474-106.346 35.831-107.701 34.109-109.021 32.353-110.251 30.552-111.41 28.709-112.533 26.786-113.567 24.872-114.53 22.949-115.412 20.957-116.242 16.884-117.641 14.857-118.247 12.768-118.72 10.662-119.166 8.547-119.522 6.432-119.799 4.317-120.004 2.167-120.128 .044-120.164-2.097-120.128Z"/>
<path transform="matrix(1,0,0,-1,185.0872,72.041599)" stroke-width="3" stroke-linecap="butt" stroke-miterlimit="10" stroke-linejoin="miter" fill="none" stroke="currentColor" d="M0 0-83.626-85.405"/>
</g>
</g>
</svg>
