<svg xmlns="http://www.w3.org/2000/svg" xmlns:xlink="http://www.w3.org/1999/xlink" xmlns:inkscape="http://www.inkscape.org/namespaces/inkscape" version="1.1" width="51" height="51" viewBox="73.76 44.01 133.01 135.38">
<defs>
<path id="font_1_19" d="M.5059967 .6799927V0H.3840027L.21299744 .42900086H.21200562L.21699524 0H.09399414V.6799927H.21699524L.3869934 .25700379H.3880005L.3829956 .6799927H.5059967Z"/>
<path id="font_1_188" d="M.5059967 .5V0H.38200379V.044006349C.36799623 .028666178 .3498281 .016164145 .3274994 .006500244 .30517069-.0031636556 .28167216-.0079956059 .25700379-.0079956059 .20500183-.0079956059 .16483052 .007837932 .13648987 .039505006 .108159389 .07117208 .09399414 .1160024 .09399414 .17399597V.32499696C.09399414 .38232932 .10916138 .42715965 .13949585 .45948792 .16983032 .4918264 .21200054 .5079956 .26600648 .5079956 .29000346 .5079956 .3131663 .50316366 .335495 .49349977 .35783387 .48383586 .3733368 .47200013 .38200379 .45799256V.5H.5059967M.29899598 .102996829C.32166038 .102996829 .34032694 .11049398 .35499574 .12548828 .36966453 .14049275 .3769989 .16032918 .3769989 .18499756V.31900025C.3769989 .34233604 .36966453 .36133323 .35499574 .37599183 .34032694 .3906606 .32166038 .397995 .29899598 .397995 .27700297 .397995 .2586721 .39115907 .2440033 .37748719 .22933452 .36382548 .22200012 .34599815 .22200012 .32400514V.17500305C.22200012 .15367127 .22933452 .13633728 .2440033 .1230011 .2586721 .10966492 .27700297 .102996829 .29899598 .102996829M.3840027 .6450043C.39133708 .6450043 .39833579 .64750167 .40499879 .65249636 .41166178 .6575012 .41832987 .66533407 .42500306 .6759949L.45199586 .6269989C.44199626 .60833236 .43049623 .59383139 .41749574 .5834961 .40449525 .5731608 .39033 .56799319 .375 .56799319 .3689982 .56799319 .35982768 .5689952 .3474884 .57099917 .3351593 .5730031 .31399537 .5773366 .28399659 .58399966 .2599996 .58933 .2436676 .5928294 .23500061 .5944977 .22633362 .59616598 .22000122 .5970001 .21600342 .5970001 .20799764 .5970001 .20032756 .5944977 .19299317 .5894928 .18566895 .5844981 .17933655 .57733157 .17399597 .56799319L.14700318 .6170044C.15700276 .6349996 .16866558 .64882919 .18199158 .65849307 .19532776 .6681671 .20966594 .67300418 .2250061 .67300418 .23099773 .67300418 .24049378 .67200216 .25349427 .66999819 .26649476 .66800436 .28833009 .66367086 .31900025 .6569977 .34233604 .6516673 .35816957 .64833578 .36650086 .6470032 .37483216 .6456706 .3806661 .6450043 .3840027 .6450043Z"/>
<path id="font_1_55" d="M.30000306 .5079956C.3620046 .5079956 .41183473 .49116007 .4494934 .457489 .48716227 .42382813 .5059967 .3786672 .5059967 .32200624V.17799378C.5059967 .1213328 .48699443 .076166789 .44898988 .042495729 .41099549 .008834839 .36133323-.0079956059 .30000306-.0079956059 .23866272-.0079956059 .18899028 .008834839 .15098572 .042495729 .11299133 .076166789 .09399414 .1213328 .09399414 .17799378V.32200624C.09399414 .3786672 .11299133 .42382813 .15098572 .457489 .18899028 .49116007 .23866272 .5079956 .30000306 .5079956M.30000306 .102996829C.32133485 .102996829 .3394979 .11016337 .3544922 .12449646 .36949668 .13882955 .3769989 .1573283 .3769989 .17999268V.32000733C.3769989 .34267173 .36949668 .36133323 .3544922 .37599183 .3394979 .3906606 .32133485 .397995 .30000306 .397995 .27867127 .397995 .26050315 .3906606 .24549866 .37599183 .23050435 .36133323 .2230072 .34267173 .2230072 .32000733V.17999268C.2230072 .1573283 .23050435 .13882955 .24549866 .12449646 .26050315 .11016337 .27867127 .102996829 .30000306 .102996829Z"/>
<path id="font_1_3" d=""/>
<path id="font_1_60" d="M.4980011 .11000061V0H.3670044C.31700645 0 .280838 .011332194 .25849916 .033996583 .23617046 .05666097 .2250061 .09399414 .2250061 .1459961V.3899994H.11000061V.5H.2250061V.6230011H.35299684V.5H.49699403V.3899994H.35299684V.16799927C.35299684 .1459961 .35699464 .13082886 .36499024 .12249756 .372996 .11416626 .3869985 .11000061 .40699769 .11000061H.4980011Z"/>
<path id="font_1_43" d="M.30200196 .100997928C.32667033 .100997928 .3456675 .10683187 .35899354 .118499759 .3723297 .13016765 .3793335 .14666748 .38000489 .16799927H.5059967C.5059967 .113332118 .48782859 .07033285 .4514923 .039001466 .41516624 .0076700847 .36566673-.0079956059 .30299378-.0079956059 .23899842-.0079956059 .1881663 .008000691 .15049744 .039993287 .112828578 .071996059 .09399414 .115997318 .09399414 .17199707V.32699586C.09399414 .3810018 .11349487 .42466737 .15249634 .45799256 .1914978 .4913279 .24166362 .5079956 .30299378 .5079956 .36366273 .5079956 .4126638 .4918264 .44999696 .45948792 .4873301 .42715965 .5059967 .3836619 .5059967 .32899476V.21899414H.2230072V.17500305C.2230072 .15233867 .2303365 .13433838 .24499512 .1210022 .2596639 .107666019 .27866618 .100997928 .30200196 .100997928M.2230072 .29600526H.38000489V.32400514C.38000489 .34599815 .37250266 .36399333 .35749818 .37799073 .34250389 .3919983 .32333885 .39900209 .30000306 .39900209 .27867127 .39900209 .26050315 .39183555 .24549866 .37750245 .23050435 .36316935 .2230072 .3456675 .2230072 .32499696V.29600526Z"/>
<path id="font_1_59" d="M.30499269 .5079956C.36299644 .5079956 .40866599 .49416099 .44200135 .4664917 .4753367 .4388326 .4930013 .39933778 .49499513 .3480072H.375C.3743286 .36533103 .36665855 .37949119 .35198976 .39048768 .33733116 .40149436 .31933595 .40699769 .29800416 .40699769 .27866618 .40699769 .2623291 .40283204 .24899292 .39450074 .23566692 .38616944 .2290039 .3756714 .2290039 .3630066 .2290039 .3496704 .23516846 .33866883 .24749756 .33000184 .25983683 .32133485 .28766886 .31200157 .33099366 .30200196 .36566163 .29333497 .3913269 .28600059 .4079895 .27999879 .42466227 .27399699 .43900047 .2669983 .45100404 .2590027 .46967063 .24633789 .483668 .23117066 .49299623 .21350098 .5023346 .1958313 .5070038 .17499797 .5070038 .15100098 .5070038 .10366821 .48750306 .065333049 .4485016 .035995485 .40950013 .006668091 .35966493-.0079956059 .29899598-.0079956059 .2363332-.0079956059 .18700154 .006169637 .15100098 .034500123 .115000408 .062830608 .09599813 .10333252 .09399414 .15600586H.22200012C.2240041 .13600667 .2323354 .120503749 .24699402 .10949707 .2616628 .09850057 .2809957 .09300232 .30499269 .09300232 .32633464 .09300232 .34417216 .097335819 .35850526 .10600281 .37283836 .1146698 .38000489 .126002 .38000489 .13999939 .38000489 .15399678 .37350465 .16549683 .36050416 .17449951 .34750367 .1835022 .31900025 .19300334 .2749939 .20300293 .2403361 .21099854 .21483867 .21799724 .19850159 .22399903 .1821645 .23000081 .16799927 .23699951 .15600586 .24499512 .13733928 .2569987 .12333679 .27183024 .11399841 .28948976 .104670207 .30715943 .1000061 .32766215 .1000061 .35099793 .1000061 .39766947 .11883545 .4355011 .15649414 .4644928 .19416301 .49349467 .24366252 .5079956 .30499269 .5079956Z"/>
<path id="font_1_38" d="M.5059967 .5V0H.38200379V.044006349C.36799623 .028666178 .3498281 .016164145 .3274994 .006500244 .30517069-.0031636556 .28167216-.0079956059 .25700379-.0079956059 .20500183-.0079956059 .16483052 .007837932 .13648987 .039505006 .108159389 .07117208 .09399414 .1160024 .09399414 .17399597V.32499696C.09399414 .38232932 .10916138 .42715965 .13949585 .45948792 .16983032 .4918264 .21200054 .5079956 .26600648 .5079956 .29000346 .5079956 .3131663 .50316366 .335495 .49349977 .35783387 .48383586 .3733368 .47200013 .38200379 .45799256V.5H.5059967M.29899598 .102996829C.32166038 .102996829 .34032694 .11049398 .35499574 .12548828 .36966453 .14049275 .3769989 .16032918 .3769989 .18499756V.31900025C.3769989 .34233604 .36966453 .36133323 .35499574 .37599183 .34032694 .3906606 .32166038 .397995 .29899598 .397995 .27700297 .397995 .2586721 .39115907 .2440033 .37748719 .22933452 .36382548 .22200012 .34599815 .22200012 .32400514V.17500305C.22200012 .15367127 .22933452 .13633728 .2440033 .1230011 .2586721 .10966492 .27700297 .102996829 .29899598 .102996829Z"/>
<path id="font_1_42" d="M.5059967 .6799927V0H.38200379V.04499817C.369339 .029668173 .3516693 .017003378 .32899476 .007003784 .30633036-.0029958089 .28266398-.0079956059 .2579956-.0079956059 .20599365-.0079956059 .16565959 .0076700847 .13699341 .039001466 .10832723 .07033285 .09399414 .115000408 .09399414 .17300415V.32600404C.09399414 .38200379 .10932922 .42633567 .13999939 .45899964 .17066956 .4916636 .21267192 .5079956 .26600648 .5079956 .28733827 .5079956 .3085022 .50382998 .3294983 .49549867 .35049439 .48716737 .3663279 .4769999 .3769989 .46499635V.6799927H.5059967M.29899598 .102996829C.32166038 .102996829 .34032694 .11066183 .35499574 .12599182 .36966453 .14133199 .3769989 .16133626 .3769989 .18600464V.31900025C.3769989 .34233604 .36966453 .36133323 .35499574 .37599183 .34032694 .3906606 .32199607 .397995 .30000306 .397995 .27799989 .397995 .2596639 .3909963 .24499512 .3769989 .2303365 .3630015 .2230072 .34500123 .2230072 .32299806V.17599488C.2230072 .15466309 .2303365 .13716126 .24499512 .12348938 .2596639 .109827678 .27766419 .102996829 .29899598 .102996829Z"/>
<path id="font_1_53" d="M.54299929 .3480072V0H.42999269V.33999635C.42999269 .3606669 .42715965 .3753357 .42149354 .3840027 .41582743 .39266969 .4059957 .39700318 .3919983 .39700318 .3780009 .39700318 .36783348 .39266969 .36149598 .3840027 .35516868 .3753357 .352005 .3610026 .352005 .34100343V0H.2480011V.33999635C.2480011 .3606669 .24516805 .3753357 .23950196 .3840027 .23383586 .39266969 .22433472 .39700318 .21099854 .39700318 .19632976 .39700318 .18582662 .39250184 .17948914 .38349916 .17316182 .37449647 .16999817 .35966493 .16999817 .33900453V0H.057006837V.5H.16600037V.45399476C.17667134 .47266136 .18866985 .48632813 .20199585 .49499513 .21533203 .5036621 .23099773 .5079956 .24899292 .5079956 .26966349 .5079956 .28682963 .5024974 .30049134 .49150086 .3141632 .48050437 .32433067 .46366883 .33099366 .44099427 .34566245 .46500144 .36099754 .48216758 .3769989 .49249269 .39300028 .50282797 .41233317 .5079956 .43499757 .5079956 .4730021 .5079956 .50050356 .4959971 .51750186 .47200013 .5345001 .44800315 .54299929 .40667216 .54299929 .3480072Z"/>
<path id="font_1_54" d="M.5059967 .33099366V0H.3769989V.32299806C.3769989 .34633384 .37016297 .3646647 .3564911 .37799073 .34282939 .3913269 .32466636 .397995 .30200196 .397995 .27933757 .397995 .26050315 .39082847 .24549866 .37649537 .23050435 .36216227 .2230072 .34432984 .2230072 .32299806V0H.09399414V.5H.21899414V.44900514C.23099773 .4663391 .24799602 .48050437 .269989 .49150086 .2919922 .5024974 .31599427 .5079956 .34199525 .5079956 .39333598 .5079956 .4335022 .49232994 .4624939 .46099855 .49149577 .42966715 .5059967 .38633219 .5059967 .33099366Z"/>
<path id="font_1_47" d="M.5059967 .11000061V0H.09399414V.11000061H.23599243V.3899994H.09399414V.5H.3650055V.11000061H.5059967M.3639984 .6439972C.3639984 .6246694 .35683189 .6078389 .34249879 .59350588 .32816569 .5791728 .31133525 .5720062 .29200746 .5720062 .27199809 .5720062 .25482688 .5791728 .24049378 .59350588 .22616069 .6078389 .21899414 .6246694 .21899414 .6439972 .21899414 .6639964 .22616069 .68116256 .24049378 .6954956 .25482688 .7098287 .27199809 .71699526 .29200746 .71699526 .31133525 .71699526 .32816569 .7096608 .34249879 .69499209 .35683189 .68033346 .3639984 .66333517 .3639984 .6439972Z"/>
<clipPath id="clip_2">
<path transform="matrix(1,0,0,-1,0,283.465)" d="M0 283.465H283.465V0H0Z"/>
</clipPath>
</defs>
<g inkscape:groupmode="layer" inkscape:label="Camada 2">
<use data-text="N" xlink:href="#font_1_19" transform="matrix(29,0,0,-29,44.5645,207.1296)" fill="currentColor"/>
<use data-text="&#x00e3;" xlink:href="#font_1_188" transform="matrix(29,0,0,-29,61.9645,207.1296)" fill="currentColor"/>
<use data-text="o" xlink:href="#font_1_55" transform="matrix(29,0,0,-29,79.3645,207.1296)" fill="currentColor"/>
<use data-text=" " xlink:href="#font_1_3" transform="matrix(29,0,0,-29,96.7645,207.1296)" fill="currentColor"/>
<use data-text="t" xlink:href="#font_1_60" transform="matrix(29,0,0,-29,114.164508,207.1296)" fill="currentColor"/>
<use data-text="e" xlink:href="#font_1_43" transform="matrix(29,0,0,-29,131.56452,207.1296)" fill="currentColor"/>
<use data-text="s" xlink:href="#font_1_59" transform="matrix(29,0,0,-29,148.96451,207.1296)" fill="currentColor"/>
<use data-text="t" xlink:href="#font_1_60" transform="matrix(29,0,0,-29,166.3645,207.1296)" fill="currentColor"/>
<use data-text="a" xlink:href="#font_1_38" transform="matrix(29,0,0,-29,183.7645,207.1296)" fill="currentColor"/>
<use data-text="d" xlink:href="#font_1_42" transform="matrix(29,0,0,-29,201.16449,207.1296)" fill="currentColor"/>
<use data-text="o" xlink:href="#font_1_55" transform="matrix(29,0,0,-29,218.56449,207.1296)" fill="currentColor"/>
<path transform="matrix(1,0,0,-1,44.5645,209.3044)" stroke-width="1.45" stroke-linecap="butt" stroke-miterlimit="10" stroke-linejoin="miter" fill="none" stroke="currentColor" d="M0 0V0H191.4Z"/>
<use data-text="e" xlink:href="#font_1_43" transform="matrix(29,0,0,-29,53.2646,239.1296)" fill="currentColor"/>
<use data-text="m" xlink:href="#font_1_53" transform="matrix(29,0,0,-29,70.6646,239.1296)" fill="currentColor"/>
<use data-text=" " xlink:href="#font_1_3" transform="matrix(29,0,0,-29,88.0646,239.1296)" fill="currentColor"/>
<use data-text="a" xlink:href="#font_1_38" transform="matrix(29,0,0,-29,105.4646,239.1296)" fill="currentColor"/>
<use data-text="n" xlink:href="#font_1_54" transform="matrix(29,0,0,-29,122.8646,239.1296)" fill="currentColor"/>
<use data-text="i" xlink:href="#font_1_47" transform="matrix(29,0,0,-29,140.2646,239.1296)" fill="currentColor"/>
<use data-text="m" xlink:href="#font_1_53" transform="matrix(29,0,0,-29,157.66461,239.1296)" fill="currentColor"/>
<use data-text="a" xlink:href="#font_1_38" transform="matrix(29,0,0,-29,175.0646,239.1296)" fill="currentColor"/>
<use data-text="i" xlink:href="#font_1_47" transform="matrix(29,0,0,-29,192.4646,239.1296)" fill="currentColor"/>
<use data-text="s" xlink:href="#font_1_59" transform="matrix(29,0,0,-29,209.8646,239.1296)" fill="currentColor"/>
<path transform="matrix(1,0,0,-1,53.2646,241.3044)" stroke-width="1.45" stroke-linecap="butt" stroke-miterlimit="10" stroke-linejoin="miter" fill="none" stroke="currentColor" d="M0 0V0H174Z"/>
<g clip-path="url(#clip_2)">
<path transform="matrix(1,0,0,-1,173.3719,136.1414)" d="M0 0C.034 .167 .077 .316 .112 .482-.808 .913-1.703 1.465-2.666 1.79-4.077 2.264-5.548 2.597-6.984 2.974-8.395 3.352-9.04 4.449-8.704 5.738-8.532 6.414-8.48 7.142-8.48 7.853-8.472 8.826-8.704 9.818-8.592 10.774-8.343 12.748-7.466 14.503-6.201 16.021-5.763 16.556-5.178 17.065-4.55 17.302-2.942 17.898-1.299 18.469 .378 18.82 2.486 19.241 3.999 20.425 4.98 22.259 6.425 24.997 6.657 27.91 5.771 30.875 4.507 35.104 2.064 38.394-1.815 40.491-4.576 41.983-7.526 42.597-10.622 42.58-11.964 42.562-12.764 43.193-12.893 44.501-13.254 48.238-14.716 51.546-16.677 54.652-18.836 58.039-21.391 61.075-24.908 63.075-26.517 63.996-28.297 64.523-30.189 64.189-30.542 64.137-30.946 63.83-31.161 63.514-32.193 62.022-31.97 60.408-31.454 58.802-30.353 55.38-28.426 52.432-26.173 49.721-24.134 47.265-21.898 44.966-19.756 42.597-19.051 41.834-18.914 40.851-19.387 40.079-19.937 39.184-20.823 38.877-21.89 39.228-22.775 39.526-23.635 39.886-24.53 40.14-30.809 41.921-37.208 42.22-43.667 41.72-47.821 41.395-51.864 40.526-55.683 38.763-61.763 35.964-66.537 31.691-69.65 25.602-70.115 24.69-70.777 24.234-71.801 24.234-73.4 24.224-74.166 23.979-74.467 21.97-74.544 21.426-74.975 20.802-75.43 20.478-76.54 19.689-76.617 19.557-75.714 18.469-75.551 18.276-75.379 18.092-75.207 17.898-74.673 17.328-74.226 16.723-74.252 15.854-74.252 15.591-74.028 15.188-73.805 15.1-72.884 14.705-71.947 14.293-70.975 14.091-70.106 13.924-69.496 13.547-69.169 12.74-68.584 11.309-68.034 9.871-67.5 8.423-67.027 7.159-66.778 5.782-66.098 4.659-64.86 2.597-62.787 1.501-60.688 .535-60.215 .307-59.665 .184-59.149 .184-41.491 .114-23.833 .062-6.175 .009-4.12 0-2.056 0 0 0M-28.151 45.168C-29.966 47.922-31.918 50.704-33.69 53.608-34.989 55.749-35.806 58.135-35.926 60.688-36.072 63.751-34.688 67.831-30.688 68.313-28.125 68.62-25.657 68.129-23.412 66.865-17.795 63.724-14.011 58.837-11.285 53.073-10.441 51.31-9.934 49.361-9.366 47.466-9.177 46.879-8.945 46.651-8.352 46.607-5.04 46.361-1.918 45.431 .938 43.685 5.41 40.93 8.197 36.868 9.762 31.858 11.009 27.874 10.596 23.988 8.799 20.294 7.276 17.179 4.756 15.266 1.376 14.564 .138 14.31-1.092 13.977-2.296 13.565-2.752 13.397-3.234 13.011-3.501 12.599-4.232 11.397-4.851 10.151-4.464 8.624-4.283 7.941-4.55 7.01-4.189 6.536-3.836 6.072-2.924 6.063-2.262 5.844-.318 5.185 1.548 4.378 3.045 2.904 4.111 1.86 4.541 .544 4.515-.921 4.49-2.562 3.355-3.904 1.763-3.992-1.393-4.176-4.558-4.308-7.715-4.299-25.184-4.273-42.644-4.203-60.103-4.141-60.551-4.141-61.015-4.053-61.419-3.878-63.896-2.86-66.176-1.518-68.128 .386-69.607 1.816-70.545 3.536-71.07 5.536-71.396 6.765-71.827 7.941-72.196 9.151-72.368 9.721-72.721 9.967-73.289 10.177-74.459 10.625-75.619 11.169-76.669 11.862-77.219 12.231-77.761 12.915-77.908 13.547-78.166 14.67-78.785 15.512-79.421 16.381-80.901 18.399-80.763 21.417-78.656 23.023-78.406 23.215-78.226 23.558-78.122 23.865-77.322 26.172-75.8 27.62-73.4 28.059-73.125 28.111-72.807 28.383-72.652 28.647-67.629 37.35-60.035 42.448-50.556 44.729-44.94 46.071-39.212 46.264-33.466 45.729-31.617 45.545-29.768 45.343-28.151 45.168" fill="currentColor"/>
<path transform="matrix(1,0,0,-1,140.2404,51.2614)" stroke-width="2" stroke-linecap="butt" stroke-miterlimit="10" stroke-linejoin="miter" fill="none" stroke="currentColor" d="M0 0-2.141-.036-4.326-.161-6.458-.366-8.6-.642-10.741-1.007-12.873-1.453-14.97-1.944-17.085-2.541-19.139-3.227-23.177-4.805-25.152-5.706-27.101-6.668-29.006-7.721-30.858-8.852-32.685-10.021-34.468-11.277-36.216-12.614-37.867-13.979-39.536-15.432-41.127-16.939-42.63-18.472-44.133-20.13-45.514-21.779-46.869-23.482-48.171-25.265-49.403-27.074-50.557-28.938-51.658-30.881-52.689-32.825-53.642-34.795-55.346-38.842-56.727-43.041-57.33-45.145-57.802-47.294-58.238-49.469-58.588-51.653-58.868-53.837-59.069-56.021-59.182-58.241-59.226-60.461-59.182-62.645-59.06-64.865-58.868-67.049-58.588-69.233-58.23-71.417-57.793-73.593-57.321-75.741-56.727-77.881-56.054-79.994-54.507-84.112-53.642-86.083-52.68-88.115-51.649-90.05-50.548-91.939-49.394-93.803-48.162-95.63-46.86-97.405-45.514-99.098-44.09-100.801-42.622-102.414-41.118-103.948-39.519-105.49-36.207-108.272-34.459-109.6-32.676-110.866-30.85-112.034-28.953-113.157-27.048-114.218-25.108-115.181-21.14-116.919-17.024-118.328-14.962-118.943-12.864-119.424-10.732-119.861-8.582-120.227-6.441-120.521-4.309-120.717-2.132-120.842 .035-120.878H.044 .053L2.185-120.842 4.37-120.717 6.511-120.512 8.652-120.227 10.784-119.861 12.925-119.424 15.023-118.934 17.094-118.328 21.21-116.91 23.229-116.072 25.169-115.181 27.118-114.209 29.058-113.148 30.911-112.025 32.737-110.857 34.52-109.6 36.259-108.263 37.92-106.89 39.589-105.437 41.171-103.939 42.683-102.406 44.142-100.792 45.566-99.089 46.912-97.395 48.223-95.622 49.455-93.794 50.609-91.939 51.71-90.04 52.742-88.053 53.694-86.074 55.398-82.026 56.779-77.827 57.373-75.723 58.282-71.409 58.64-69.224 58.92-67.049 59.112-64.847 59.235-62.628 59.278-60.408 59.235-58.223 59.112-56.003 58.92-53.829 58.64-51.6 58.282-49.46 57.845-47.285 57.373-45.127 56.779-42.988 56.097-40.884 54.559-36.774 53.685-34.741 52.742-32.771 51.701-30.828 50.592-28.929 49.447-27.066 48.215-25.247 46.912-23.473 45.566-21.779 44.142-20.085 42.665-18.454 39.536-15.396 37.911-13.97 36.216-12.561 34.511-11.277 32.72-10.011 28.997-7.711 27.101-6.668 25.152-5.696 21.193-3.949 17.077-2.541 15.005-1.934 10.776-1.007 8.634-.642 6.493-.356 4.317-.161 2.176-.036 0 0ZM-2.097-120.128-4.256-120.004-6.371-119.799-8.486-119.522-10.601-119.166-12.715-118.72-14.787-118.247-16.823-117.65-20.887-116.26-24.811-114.539-26.725-113.576-28.604-112.533-30.483-111.419-32.292-110.26-34.048-109.021-35.77-107.701-39.056-104.955-40.629-103.44-42.115-101.924-43.565-100.32-44.972-98.635-46.301-96.968-47.603-95.211-48.809-93.419-49.945-91.565-51.046-89.702-52.06-87.785-53.004-85.779-53.86-83.827-55.39-79.744-56.054-77.676-56.639-75.572-57.539-71.283-57.898-69.135-58.169-66.978-58.361-64.82-58.483-62.618-58.518-60.461-58.483-58.268-58.369-56.066-58.177-53.917-57.898-51.76-57.548-49.603-57.12-47.436-56.648-45.333-56.062-43.255-54.69-39.101-53.004-35.107-52.069-33.146-51.046-31.229-49.954-29.312-48.818-27.476-47.603-25.684-46.309-23.928-44.981-22.243-43.609-20.611-42.123-18.971-40.638-17.446-39.073-15.975-37.422-14.531-35.778-13.176-34.057-11.857-32.3-10.617-30.5-9.468-28.656-8.344-26.777-7.301-24.863-6.347-22.906-5.465-18.912-3.905-16.876-3.227-14.804-2.63-12.733-2.149-10.609-1.712-8.494-1.346-6.38-1.07-4.265-.874-2.115-.758 0-.713 2.15-.749 4.265-.874 6.415-1.07 8.538-1.346 10.653-1.703 14.839-2.63 16.876-3.218 20.939-4.627 24.854-6.347 26.777-7.292 28.656-8.335 32.335-10.609 34.101-11.848 35.779-13.132 37.474-14.531 39.065-15.913 42.167-18.962 43.618-20.558 45.025-22.234 46.362-23.919 47.646-25.666 48.861-27.467 49.997-29.303 51.099-31.176 52.112-33.101 53.047-35.054 53.904-37.042 55.442-41.116 56.106-43.202 56.692-45.305 57.163-47.427 57.592-49.585 57.95-51.706 58.221-53.9 58.413-56.057 58.536-58.259 58.571-60.408 58.536-62.61 58.413-64.812 58.23-66.969 57.95-69.117 57.601-71.275 56.7-75.554 56.106-77.622 54.743-81.776 53.056-85.77 52.112-87.732 51.099-89.693 50.006-91.565 48.87-93.402 47.655-95.203 46.362-96.95 45.025-98.626 43.626-100.311 42.176-101.907 40.69-103.431 39.126-104.911 37.474-106.346 35.831-107.701 34.109-109.021 32.353-110.251 30.552-111.41 28.709-112.533 26.786-113.567 24.872-114.53 22.949-115.412 20.957-116.242 16.884-117.641 14.857-118.247 12.768-118.72 10.662-119.166 8.547-119.522 6.432-119.799 4.317-120.004 2.167-120.128 .044-120.164-2.097-120.128Z"/>
</g>
</g>
</svg>
